<?xml version="1.0" standalone="no"?><!DOCTYPE svg PUBLIC "-//W3C//DTD SVG 1.1//EN" "http://www.w3.org/Graphics/SVG/1.1/DTD/svg11.dtd"><svg class="icon" width="200px" height="157.18px" viewBox="0 0 1303 1024" version="1.1" xmlns="http://www.w3.org/2000/svg"><path d="M80.740848 280.079515a93.090909 93.090909 0 0 0-79.996121 103.827394l69.818182 558.545455A93.090909 93.090909 0 0 0 162.909091 1024h952.754424a93.090909 93.090909 0 0 0 92.377212-81.547636l69.818182-558.545455a93.090909 93.090909 0 0 0-80.027151-103.827394V372.363636h-1117.09091V280.079515z" fill="#C1D0FF" /><path d="M80.740848 279.272727a62.060606 62.060606 0 0 1 62.060607-62.060606h992.969697a62.060606 62.060606 0 0 1 62.060606 62.060606v325.818182h-1117.09091V279.272727zM235.892364 155.151515a62.060606 62.060606 0 0 1 62.060606-62.060606h682.666666a62.060606 62.060606 0 0 1 62.060606 62.060606v31.030303h-806.787878V155.151515zM391.043879 62.060606a62.060606 62.060606 0 0 1 62.060606-62.060606h341.333333a62.060606 62.060606 0 0 1 62.060606 62.060606h-465.454545z" fill="#0B77FF" /><path d="M80.740848 279.272727a93.090909 93.090909 0 0 0-79.996121 103.827394l69.818182 558.545455a93.090909 93.090909 0 0 0 92.346182 81.547636h952.754424a93.090909 93.090909 0 0 0 92.377212-81.547636l69.818182-558.545455A93.090909 93.090909 0 0 0 1197.831758 279.272727v92.284121h-1117.09091V279.272727z" fill="#E8E8E8" fill-opacity=".1" /><path d="M1228.862061 402.587152v-75.403637c13.312 13.032727 20.728242 31.899152 18.183757 52.068849l-69.818182 558.545454a62.060606 62.060606 0 0 1-61.564121 54.365091H162.909091a62.060606 62.060606 0 0 1-61.564121-54.365091l-69.818182-558.545454a61.905455 61.905455 0 0 1 18.183757-52.068849v75.403637h1179.151516z m0-113.415758a92.222061 92.222061 0 0 0-31.030303-9.898667v92.284121h-1117.09091V279.272727a93.090909 93.090909 0 0 0-79.996121 103.827394l69.818182 558.545455a93.090909 93.090909 0 0 0 92.346182 81.547636h952.754424a93.090909 93.090909 0 0 0 92.377212-81.547636l69.818182-558.545455a93.090909 93.090909 0 0 0-48.996848-93.928727z" fill="#FFFFFF" fill-opacity=".6" /><path d="M391.043879 589.575758a31.030303 31.030303 0 1 1 62.060606 0v124.121212h372.363636v-124.121212a31.030303 31.030303 0 1 1 62.060606 0v155.151515a31.030303 31.030303 0 0 1-31.030303 31.030303h-434.424242a31.030303 31.030303 0 0 1-31.030303-31.030303v-155.151515z" fill="#FFFFFF" /></svg>