<?xml version="1.0" standalone="no"?><!DOCTYPE svg PUBLIC "-//W3C//DTD SVG 1.1//EN" "http://www.w3.org/Graphics/SVG/1.1/DTD/svg11.dtd"><svg class="icon" width="200px" height="157.18px" viewBox="0 0 1303 1024" version="1.1" xmlns="http://www.w3.org/2000/svg"><path d="M0 93.090909a93.090909 93.090909 0 0 1 93.090909-93.090909h1117.090909a93.090909 93.090909 0 0 1 93.090909 93.090909v620.606061a93.090909 93.090909 0 0 1-93.090909 93.090909H93.090909a93.090909 93.090909 0 0 1-93.090909-93.090909V93.090909z" fill="#C1D0FF" /><path d="M1055.030303 806.787879c0 79.965091-23.272727 154.530909-63.425939 217.212121H311.668364A401.532121 401.532121 0 0 1 248.242424 806.787879c0-222.797576 180.596364-403.393939 403.39394-403.39394s403.393939 180.596364 403.393939 403.39394zM651.636364 496.484848c-8.688485 0-15.763394 6.826667-16.073697 15.515152l-14.832485 399.732364c-0.093091 2.420364 0.124121 4.871758 0.620606 7.23006l11.729454 58.802424a18.928485 18.928485 0 0 0 37.112243 0l11.760485-58.802424c0.465455-2.358303 0.651636-4.778667 0.589575-7.23006L667.741091 512A16.104727 16.104727 0 0 0 651.636364 496.484848z" fill="#0F62FE" /><path d="M0 93.090909a93.090909 93.090909 0 0 1 93.090909-93.090909h1117.090909a93.090909 93.090909 0 0 1 93.090909 93.090909v620.606061a93.090909 93.090909 0 0 1-93.090909 93.090909H93.090909a93.090909 93.090909 0 0 1-93.090909-93.090909V93.090909z" fill="#E8E8E8" fill-opacity=".1" /><path d="M1210.181818 31.030303a62.060606 62.060606 0 0 1 62.060606 62.060606v620.606061a62.060606 62.060606 0 0 1-62.060606 62.060606H93.090909a62.060606 62.060606 0 0 1-62.060606-62.060606V93.090909a62.060606 62.060606 0 0 1 62.060606-62.060606h1117.090909zM93.090909 0a93.090909 93.090909 0 0 0-93.090909 93.090909v620.606061a93.090909 93.090909 0 0 0 93.090909 93.090909h1117.090909a93.090909 93.090909 0 0 0 93.090909-93.090909V93.090909a93.090909 93.090909 0 0 0-93.090909-93.090909H93.090909z" fill="#FFFFFF" fill-opacity=".6" /><path d="M876.016485 135.043879c8.067879 1.768727 12.877576 9.929697 10.860606 17.904485l-16.942546 66.528969a12.163879 12.163879 0 0 1-14.460121 8.750546 12.163879 12.163879 0 0 1-9.433212-14.025697l12.629333-67.490909c1.551515-8.067879 9.309091-13.436121 17.37697-11.667394z m325.880242 267.29503a14.553212 14.553212 0 0 1-8.067879 19.300849l-63.705212 25.6a12.163879 12.163879 0 0 1-15.577212-6.516364 12.163879 12.163879 0 0 1 5.740606-15.856485l61.936485-29.633939a14.522182 14.522182 0 0 1 19.673212 7.136969zM941.521455 170.666667a14.553212 14.553212 0 0 0-8.471273-19.114667 14.522182 14.522182 0 0 0-18.680243 9.340121l-21.100606 65.349818c-2.048 6.206061 1.365333 12.877576 7.540364 15.111758a12.163879 12.163879 0 0 0 15.453091-6.826667l25.258667-63.860363z m44.218181 3.537454c7.354182 3.723636 9.991758 12.784485 6.050909 20.014546L958.867394 254.448485a12.163879 12.163879 0 0 1-16.166788 4.902788 12.163879 12.163879 0 0 1-5.647515-15.918546l28.982303-62.246788a14.553212 14.553212 0 0 1 19.704242-7.012848z m52.348122 49.08994a14.553212 14.553212 0 0 0-3.568485-20.604122 14.553212 14.553212 0 0 0-20.41794 4.561455l-36.305454 58.274909a12.163879 12.163879 0 0 0 3.661576 16.508121 12.163879 12.163879 0 0 0 16.663272-2.916848l39.967031-55.823515z m44.249212 16.073697c6.206061 5.430303 6.516364 14.894545 0.868848 20.914424l-46.855757 50.176a12.163879 12.163879 0 0 1-16.849455 0.713697 12.163879 12.163879 0 0 1-1.551515-16.818424l43.566545-53.061819a14.553212 14.553212 0 0 1 20.821334-1.923878z m48.283151 72.610909a14.553212 14.553212 0 0 0 2.389334-20.759273 14.553212 14.553212 0 0 0-20.883394-1.365333l-51.262061 45.707636a12.163879 12.163879 0 0 0-1.086061 16.849455 12.163879 12.163879 0 0 0 16.756364 1.892848l54.085818-42.294303z m43.504485 36.92606a14.553212 14.553212 0 0 1-5.492364 20.169697l-59.888484 33.574788a12.163879 12.163879 0 0 1-16.29091-4.437333 12.163879 12.163879 0 0 1 3.661576-16.477091l57.592243-37.360485a14.553212 14.553212 0 0 1 20.417939 4.499394z" fill="#FFFFFF" /><path d="M155.151515 155.151515a31.030303 31.030303 0 0 1 31.030303-31.030303h310.30303a31.030303 31.030303 0 0 1 31.030304 31.030303v93.090909a31.030303 31.030303 0 0 1-31.030304 31.030303H186.181818a31.030303 31.030303 0 0 1-31.030303-31.030303V155.151515z" fill="#FFFFFF" /></svg>