<?xml version="1.0" standalone="no"?><!DOCTYPE svg PUBLIC "-//W3C//DTD SVG 1.1//EN" "http://www.w3.org/Graphics/SVG/1.1/DTD/svg11.dtd"><svg class="icon" width="200px" height="149.05px" viewBox="0 0 1374 1024" version="1.1" xmlns="http://www.w3.org/2000/svg"><path d="M572.793263 73.835789a26.947368 26.947368 0 0 1 36.97179-25.357473l365.136842 146.674526a26.947368 26.947368 0 0 1 16.437894 20.021895l121.532632 645.52421a26.947368 26.947368 0 0 1-33.387789 31.043369L602.273684 766.005895a26.947368 26.947368 0 0 1-20.075789-25.680842l-9.431579-666.462316z" fill="#C1D0FF" /><path d="M288.175158 172.274526a26.947368 26.947368 0 0 1 28.456421-34.654315l391.545263 39.343157a26.947368 26.947368 0 0 1 21.369263 14.632421l296.232421 586.266948a26.947368 26.947368 0 0 1-23.390315 39.073684l-493.352422 11.991579a26.947368 26.947368 0 0 1-26.435368-19.078737l-194.425263-637.574737z" fill="#0F62FE" /><path d="M266.563368 225.441684l-242.445473 25.869474a26.947368 26.947368 0 0 0-20.749474 39.82821L333.877895 889.532632a26.947368 26.947368 0 0 0 29.722947 13.20421l214.770526-50.310737-98.330947 2.371369a28.186947 28.186947 0 0 1-27.648-19.941053L266.563368 225.441684z" fill="#0F62FE" /><path d="M572.793263 73.835789a26.947368 26.947368 0 0 1 36.97179-25.357473l365.136842 146.674526a26.947368 26.947368 0 0 1 16.437894 20.021895l121.532632 645.52421a26.947368 26.947368 0 0 1-33.387789 31.043369L602.273684 766.005895a26.947368 26.947368 0 0 1-20.075789-25.680842l-9.431579-666.462316z" fill="#E8E8E8" fill-opacity=".1" /><path d="M964.877474 220.16l121.478737 645.524211-477.210948-125.736422-9.431579-666.489263L964.904421 220.16zM609.792 48.478316a26.947368 26.947368 0 0 0-36.998737 25.384421l9.431579 666.462316a26.947368 26.947368 0 0 0 20.048842 25.680842l477.237895 125.736421a26.947368 26.947368 0 0 0 33.333895-31.043369L991.393684 215.174737a26.947368 26.947368 0 0 0-16.437895-20.021895l-365.136842-146.674526z" fill="#FFFFFF" fill-opacity=".6" /><path d="M802.088421 584.434526c18.917053 8.245895 38.346105 10.563368 56.400842 6.709895l-9.728-36.028632c-13.419789 2.856421-27.809684 1.158737-41.822316-4.958315-14.012632-6.090105-27.216842-16.410947-38.29221-29.911579a138.725053 138.725053 0 0 1-25.034105-47.319579 134.117053 134.117053 0 0 1-5.389474-52.655158c1.778526-17.030737 7.141053-32.363789 15.575579-44.597895 8.461474-12.234105 19.671579-20.911158 32.633263-25.222737 12.934737-4.311579 27.216842-4.096 41.364211 0.592842 14.174316 4.688842 27.809684 13.716211 39.612631 26.21979l16.222316-26.031158c-15.898947-16.869053-34.277053-29.049263-53.382737-35.381895-19.132632-6.332632-38.319158-6.602105-55.781053-0.808421-17.515789 5.847579-32.633263 17.542737-44.032 34.034527-11.398737 16.491789-18.620632 37.187368-21.018947 60.173473-2.425263 22.959158 0.080842 47.400421 7.27579 71.006316a187.122526 187.122526 0 0 0 33.765052 63.811368c14.955789 18.243368 32.714105 32.148211 51.631158 40.367158z m103.397053-204.368842a175.858526 175.858526 0 0 0-14.982737-21.072842l-18.02779 24.037053a129.185684 129.185684 0 0 1 11.102316 15.629473l21.908211-18.593684z m14.147368 28.402527c2.371368 5.982316 4.446316 12.099368 6.197895 18.270315l-27.162948 6.521263a142.821053 142.821053 0 0 0-0.91621-3.125894l-0.404211-1.293474a146.270316 146.270316 0 0 0-3.287579-9.135158l25.573053-11.237052z m13.392842 73.404631a174.295579 174.295579 0 0 0-0.592842-19.671579l-28.860631-2.640842c0.404211 4.877474 0.538947 9.754947 0.431157 14.551579l29.022316 7.760842z m-4.392421 33.253053a130.479158 130.479158 0 0 1-7.114105 20.992l-26.058105-21.773474c2.155789-4.904421 3.907368-10.105263 5.281684-15.575579l27.890526 16.357053z m-35.166316 59.014737c5.12-4.176842 9.808842-9.027368 14.066527-14.44379l-22.447158-27.863579a68.715789 68.715789 0 0 1-10.401684 10.698105l18.782315 31.609264z" fill="#FFFFFF" /></svg>